$MeshFormat
4.1 0 8
$EndMeshFormat
$PhysicalNames
4
1 1 "fixed"
1 2 "loaded"
1 3 "free"
2 4 "surf1"
$EndPhysicalNames
$Entities
4 4 1 0
1 0 -5 0 0 
2 50 -5 0 0 
3 50 5 0 0 
4 0 5 0 0 
1 0 -5 0 50 -5 0 1 3 2 1 -2 
2 50 -5 0 50 5 0 1 2 2 2 -3 
3 0 5 0 50 5 0 1 3 2 3 -4 
4 0 -5 0 0 5 0 1 1 2 4 -1 
1 0 -5 0 50 5 0 1 4 4 1 2 3 4 
$EndEntities
$Nodes
9 185 1 185
0 1 0 1
1
0 -5 0
0 2 0 1
2
50 -5 0
0 3 0 1
3
50 5 0
0 4 0 1
4
0 5 0
1 1 0 24
5
6
7
8
9
10
11
12
13
14
15
16
17
18
19
20
21
22
23
24
25
26
27
28
1.999999999992026 -5 0
3.999999999984199 -5 0
5.999999999977311 -5 0
7.99999999996744 -5 0
9.99999999995706 -5 0
11.99999999994668 -5 0
13.99999999993629 -5 0
15.99999999992658 -5 0
17.99999999992327 -5 0
19.99999999991999 -5 0
21.99999999991671 -5 0
23.99999999991343 -5 0
25.99999999991016 -5 0
27.99999999990688 -5 0
29.9999999999036 -5 0
31.9999999999016 -5 0
33.99999999991243 -5 0
35.99999999992338 -5 0
37.99999999993432 -5 0
39.99999999994527 -5 0
41.99999999995622 -5 0
43.99999999996716 -5 0
45.9999999999781 -5 0
47.99999999998904 -5 0
1 2 0 4
29
30
31
32
50 -3.000000000000863 0
50 -1.00000000000724 0
50 0.9999999999950866 0
50 2.999999999997555 0
1 3 0 24
33
34
35
36
37
38
39
40
41
42
43
44
45
46
47
48
49
50
51
52
53
54
55
56
48.00000000001421 5 0
46.00000000002843 5 0
44.00000000004264 5 0
42.00000000005685 5 0
40.00000000007106 5 0
38.00000000008528 5 0
36.00000000009949 5 0
34.0000000001137 5 0
32.00000000012781 5 0
30.00000000012908 5 0
28.00000000012909 5 0
26.0000000001291 5 0
24.00000000012911 5 0
22.00000000012911 5 0
20.00000000012911 5 0
18.00000000012785 5 0
16.00000000011374 5 0
14.00000000009953 5 0
12.0000000000853 5 0
10.00000000007108 5 0
8.000000000056872 5 0
6.000000000042654 5 0
4.000000000028429 5 0
2.000000000014218 5 0
1 4 0 4
57
58
59
60
0 3.000000000000863 0
0 1.00000000000724 0
0 -0.9999999999950866 0
0 -2.999999999997555 0
2 1 0 125
61
62
63
64
65
66
67
68
69
70
71
72
73
74
75
76
77
78
79
80
81
82
83
84
85
86
87
88
89
90
91
92
93
94
95
96
97
98
99
100
101
102
103
104
105
106
107
108
109
110
111
112
113
114
115
116
117
118
119
120
121
122
123
124
125
126
127
128
129
130
131
132
133
134
135
136
137
138
139
140
141
142
143
144
145
146
147
148
149
150
151
152
153
154
155
156
157
158
159
160
161
162
163
164
165
166
167
168
169
170
171
172
173
174
175
176
177
178
179
180
181
182
183
184
185
43.00000000004975 3.26794919244343 0
39.00000000007817 3.267949192443436 0
6.999999999972376 -3.267949192439891 0
35.00000000010661 3.26794919244343 0
10.99999999995187 -3.267949192440116 0
31.00000000012845 3.267949192437784 0
14.99999999993144 -3.267949192439826 0
21.02661277977953 -3.283314088049314 0
24.99999999991195 -3.267949192430097 0
28.99999999990657 -3.267949192428091 0
17.00000000012293 3.267949192426097 0
44.99999999996348 -3.267949192386735 0
5.000000000037673 3.267949192416693 0
40.99999999994396 -3.267949192404378 0
9.000000000061721 3.267949192420346 0
36.99999999992841 -3.267949192423306 0
22.97338722023088 3.316006158488577 0
27.0000000001291 3.267949192431132 0
13.00000000009303 3.26794919241913 0
32.99999999990882 -3.267949192425516 0
48.37244843820319 0.09667905495204328 0
1.627551561801436 -0.09667905494308351 0
46.86114907733847 3.08097945377228 0
3.138850922668885 -3.080979453769309 0
19.00000000012846 3.267949192429364 0
18.00000000012993 1.535898384857157 0
16.00000000012748 1.535898384850912 0
19.97348812791023 1.583903268319505 0
17.00000000013586 -0.1961524227174007 0
15.00000000013476 -0.1961524227248573 0
14.00000000011171 1.535898384844979 0
13.00000000013263 -0.1961524227338919 0
34.99999999991816 -3.267949192424075 0
33.99999999991068 -1.535898384852644 0
31.99999999990506 -1.535898384854758 0
32.99999999990422 0.1961524227158309 0
30.9999999999049 0.1961524227132607 0
34.99999999990446 0.1961524227205216 0
29.99999999990627 -1.535898384856238 0
28.99999999990709 0.1961524227118172 0
27.99999999990819 -1.535898384858537 0
26.99999999990952 0.196152422711203 0
25.99999999991053 -1.535898384859564 0
24.99999999991172 0.1961524227106973 0
23.99999999991301 -1.535898384860042 0
22.98106294837905 0.1136842307029542 0
35.99999999991607 -1.535898384848868 0
37.99999999992221 -1.535898384841025 0
36.99999999990641 0.1961524227330957 0
38.99999999991138 0.1961524227376292 0
39.9999999999267 -1.535898384829014 0
40.99999999991163 0.1961524227574379 0
41.99999999993091 -1.535898384809796 0
42.99999999991167 0.1961524227781167 0
43.99999999993508 -1.53589838479331 0
45.15215341127702 0.1855319382245136 0
46.06237152880102 -1.70115938727524 0
46.99665258542061 -3.302623789672253 0
42.99999999994947 -3.267949192399036 0
38.99999999993348 -3.267949192416288 0
22.02799297550965 -1.60031294814542 0
30.99999999990532 -3.267949192427434 0
7.000000000048173 3.267949192419723 0
8.000000000054719 1.535898384843085 0
10.0000000000632 1.535898384841885 0
9.000000000058025 -0.1961524227329354 0
7.000000000053719 -0.1961524227311754 0
11.00000000006225 -0.196152422734906 0
12.00000000008962 1.535898384842985 0
6.000000000046822 1.535898384840851 0
4.847846588716881 -0.1855319381886709 0
3.937628471203333 1.701159387318226 0
3.003347414593831 3.302623789743357 0
29.00000000012878 3.267949192431328 0
11.00000000007732 3.267949192420724 0
24.99838357761111 3.29469614404282 0
26.99999999990904 -3.267949192429381 0
20.96453311158072 3.299324396300973 0
19.03104824309223 -3.318566974450969 0
23.00910095915738 -3.281245768914145 0
17.00264015665611 -3.305612681176333 0
5.109886772293217 -3.323870371798665 0
15.0000000001139 3.26794919242356 0
19.01592503017726 -0.1080437673712247 0
33.00000000011753 3.267949192437807 0
8.999999999962252 -3.26794919244012 0
12.99999999994148 -3.26794919244012 0
44.89011322772295 3.32387037181065 0
41.00000000006396 3.267949192443463 0
37.00000000009238 3.267949192443504 0
48.40958954142334 1.952066487842168 0
1.590410458578788 -1.952066487839488 0
1.876446688657696 1.837395744394411 0
48.12355331134732 -1.837395744374187 0
46.86206216653967 1.126455334668562 0
3.137937833465963 -1.12645533465487 0
20.01703074574332 -1.673766846887649 0
21.98217947566594 1.674109394275144 0
6.07970051203047 -1.761299584957324 0
7.999999999967491 -1.732050807612014 0
9.99999999996958 -1.732050807610254 0
11.99999999999901 -1.73205080760142 0
38.00000000006991 1.73205080763559 0
36.00000000006545 1.732050807625956 0
40.00000000005658 1.732050807640193 0
34.00000000005959 1.732050807612434 0
32.0000000000647 1.732050807609097 0
15.99999999992643 -1.732050807648533 0
18.01110736262186 -1.722365583375352 0
14.00000000001096 -1.732050807598108 0
42.0000000000436 1.732050807646587 0
23.98916887028482 1.721116526286743 0
25.99792540799589 1.734686252637722 0
30.00000000006947 1.732050807607491 0
27.99965423468997 1.732490048421782 0
43.92029948797347 1.761299584981673 0
21.0006054459825 -0.0003124956616524788 0
48.53589838484621 -3.535898384849383 0
1.46410161515462 3.535898384849421 0
1.464101615130195 -3.535898384867013 0
48.53589838487547 3.535898384871001 0
4.505469402624354 -1.870933051780961 0
45.49453059738812 1.870933051795365 0
3.102497757850653 0.4187677037848547 0
46.89750224216024 -0.4187677037663764 0
$EndNodes
$Elements
5 368 1 368
1 1 1 25
1 1 5 
2 5 6 
3 6 7 
4 7 8 
5 8 9 
6 9 10 
7 10 11 
8 11 12 
9 12 13 
10 13 14 
11 14 15 
12 15 16 
13 16 17 
14 17 18 
15 18 19 
16 19 20 
17 20 21 
18 21 22 
19 22 23 
20 23 24 
21 24 25 
22 25 26 
23 26 27 
24 27 28 
25 28 2 
1 2 1 5
26 2 29 
27 29 30 
28 30 31 
29 31 32 
30 32 3 
1 3 1 25
31 3 33 
32 33 34 
33 34 35 
34 35 36 
35 36 37 
36 37 38 
37 38 39 
38 39 40 
39 40 41 
40 41 42 
41 42 43 
42 43 44 
43 44 45 
44 45 46 
45 46 47 
46 47 48 
47 48 49 
48 49 50 
49 50 51 
50 51 52 
51 52 53 
52 53 54 
53 54 55 
54 55 56 
55 56 4 
1 4 1 5
56 4 57 
57 57 58 
58 58 59 
59 59 60 
60 60 1 
2 1 2 308
61 117 118 154 
62 132 133 153 
63 151 83 155 
64 152 84 156 
65 117 154 185 
66 132 153 184 
67 155 83 183 
68 156 84 182 
69 139 157 169 
70 77 158 172 
71 27 28 118 
72 115 72 117 
73 72 27 118 
74 128 92 129 
75 72 115 119 
76 91 79 129 
77 92 91 129 
78 117 72 118 
79 25 26 119 
80 111 74 113 
81 113 74 119 
82 74 111 120 
83 74 25 119 
84 26 72 119 
85 109 108 110 
86 79 91 143 
87 129 79 135 
88 55 56 133 
89 107 108 109 
90 115 113 119 
91 111 108 120 
92 98 94 107 
93 70 99 101 
94 70 101 137 
95 101 103 137 
96 94 93 107 
97 69 103 105 
98 103 69 137 
99 105 121 140 
100 69 105 140 
101 50 79 143 
102 98 107 109 
103 121 68 140 
104 99 70 122 
105 48 49 71 
106 108 76 120 
107 80 93 94 
108 127 124 130 
109 19 20 122 
110 48 71 85 
111 75 123 124 
112 73 55 133 
113 124 123 130 
114 79 51 135 
115 127 130 131 
116 76 23 120 
117 80 94 95 
118 75 53 123 
119 75 125 135 
120 85 71 86 
121 70 19 122 
122 125 129 135 
123 20 21 80 
124 93 76 107 
125 125 124 126 
126 20 80 122 
127 80 21 93 
128 75 124 125 
129 41 42 66 
130 95 94 96 
131 125 126 128 
132 123 73 130 
133 107 76 108 
134 22 76 93 
135 132 73 133 
136 126 124 127 
137 130 73 132 
138 24 74 120 
139 110 108 111 
140 54 73 123 
141 87 71 143 
142 24 25 74 
143 26 27 72 
144 22 23 76 
145 85 86 88 
146 96 94 98 
147 52 53 75 
148 95 96 97 
149 54 55 73 
150 50 51 79 
151 42 43 134 
152 110 111 112 
153 21 22 93 
154 66 42 134 
155 86 87 89 
156 43 78 134 
157 40 41 145 
158 23 24 120 
159 95 97 99 
160 89 87 90 
161 53 54 123 
162 95 99 122 
163 80 95 122 
164 52 75 135 
165 112 113 114 
166 30 31 81 
167 78 44 136 
168 99 97 100 
169 91 87 143 
170 86 89 144 
171 85 88 138 
172 51 52 135 
173 86 71 87 
174 45 77 136 
175 43 44 78 
176 99 100 101 
177 58 59 82 
178 45 46 77 
179 47 85 138 
180 44 45 136 
181 18 19 70 
182 18 70 137 
183 47 48 85 
184 114 115 116 
185 90 91 92 
186 77 46 138 
187 103 104 105 
188 17 18 137 
189 101 102 103 
190 105 106 121 
191 46 47 138 
192 101 100 102 
193 41 66 145 
194 16 17 69 
195 14 15 68 
196 69 17 137 
197 13 14 139 
198 131 130 132 
199 15 16 140 
200 88 86 144 
201 103 102 104 
202 105 104 106 
203 12 13 141 
204 125 128 129 
205 64 40 145 
206 6 7 142 
207 13 139 141 
208 68 15 140 
209 14 68 139 
210 16 69 140 
211 112 111 113 
212 114 113 115 
213 49 50 143 
214 11 12 67 
215 7 8 63 
216 5 6 84 
217 90 87 91 
218 116 115 117 
219 9 10 65 
220 8 9 146 
221 35 36 61 
222 39 40 64 
223 37 38 62 
224 36 37 149 
225 10 11 147 
226 38 39 150 
227 71 49 143 
228 34 35 148 
229 33 34 83 
230 7 63 142 
231 67 12 141 
232 84 6 142 
233 63 8 146 
234 11 67 147 
235 9 65 146 
236 65 10 147 
237 61 36 149 
238 37 62 149 
239 62 38 150 
240 39 64 150 
241 35 61 148 
242 83 34 148 
243 31 32 151 
244 59 60 152 
245 57 58 153 
246 29 30 154 
247 157 144 169 
248 158 106 172 
249 139 68 157 
250 77 138 158 
251 88 144 177 
252 121 106 177 
253 81 31 151 
254 58 82 153 
255 82 59 152 
256 30 81 154 
257 2 29 178 
258 4 57 179 
259 28 2 178 
260 56 4 179 
261 60 1 180 
262 1 5 180 
263 32 3 181 
264 3 33 181 
265 144 157 177 
266 106 158 177 
267 68 121 157 
268 138 88 158 
269 84 142 182 
270 83 148 183 
271 173 102 175 
272 78 173 175 
273 92 128 162 
274 100 174 175 
275 100 97 174 
276 144 89 169 
277 96 98 166 
278 97 96 167 
279 102 100 175 
280 78 136 173 
281 136 77 172 
282 98 109 164 
283 89 90 168 
284 136 172 173 
285 96 166 167 
286 97 167 174 
287 89 168 169 
288 90 92 170 
289 109 110 163 
290 98 164 166 
291 168 90 170 
292 110 112 165 
293 109 163 164 
294 163 110 165 
295 112 114 171 
296 92 162 170 
297 128 126 161 
298 165 112 171 
299 126 127 160 
300 127 131 159 
301 114 116 176 
302 128 161 162 
303 171 114 176 
304 126 160 161 
305 127 159 160 
306 142 63 159 
307 63 146 160 
308 159 63 160 
309 160 146 161 
310 146 65 161 
311 161 65 162 
312 65 147 162 
313 62 150 163 
314 162 147 170 
315 64 145 166 
316 174 134 175 
317 150 64 164 
318 163 150 164 
319 62 163 165 
320 166 145 167 
321 149 62 165 
322 66 134 174 
323 141 139 169 
324 134 78 175 
325 106 104 172 
326 172 104 173 
327 104 102 173 
328 145 66 167 
329 164 64 166 
330 67 141 168 
331 147 67 170 
332 149 165 171 
333 61 149 171 
334 168 141 169 
335 67 168 170 
336 167 66 174 
337 61 171 176 
338 148 61 176 
339 81 151 155 
340 82 152 156 
341 116 117 185 
342 131 132 184 
343 153 82 184 
344 154 81 185 
345 158 88 177 
346 157 121 177 
347 155 116 185 
348 156 131 184 
349 29 154 178 
350 151 32 181 
351 152 60 180 
352 57 153 179 
353 118 28 178 
354 133 56 179 
355 5 84 180 
356 33 83 181 
357 83 151 181 
358 84 152 180 
359 153 133 179 
360 154 118 178 
361 131 156 182 
362 116 155 183 
363 159 131 182 
364 176 116 183 
365 82 156 184 
366 81 155 185 
367 142 159 182 
368 148 176 183 
$EndElements
