$MeshFormat
4.1 0 8
$EndMeshFormat
$PhysicalNames
4
1 1 "supported1"
1 2 "supported2"
1 3 "free"
2 4 "surf1"
$EndPhysicalNames
$Entities
3 3 1 0
1 0 0 0 0 
2 0.1 0 0 0 
3 0 0.1 0 0 
1 0 0 0 0.1 0 0 1 1 2 1 -2 
2 0 0 0 0 0.1 0 1 2 2 3 -1 
3 6.938893903907228e-18 0 0 0.1 0.1 0 1 3 2 2 -3 
1 0 0 0 0.1 0.1 0 1 4 3 1 3 2 
$EndEntities
$Nodes
7 35 1 35
0 1 0 1
1
0 0 0
0 2 0 1
2
0.1 0 0
0 3 0 1
3
0 0.1 0
1 1 0 4
4
5
6
7
0.019999999999956 0 0
0.03999999999989585 0 0
0.05999999999989426 0 0
0.07999999999994738 0 0
1 2 0 4
8
9
10
11
0 0.08000000000005529 0
0 0.06000000000011058 0
0 0.04000000000011003 0
0 0.02000000000005478 0
1 3 0 7
12
13
14
15
16
17
18
0.09807852803066691 0.01950903225015753 0
0.09238795320933009 0.03826834333741969 0
0.08314696113345352 0.05555702344683316 0
0.0707106779506733 0.0707106782866362 0
0.0555570231600433 0.08314696132508038 0
0.03826834312455452 0.09238795329750174 0
0.01950903214346056 0.09807852805189025 0
2 1 0 17
19
20
21
22
23
24
25
26
27
28
29
30
31
32
33
34
35
0.06540592235171641 0.05189055420744621 0
0.01896280723251247 0.04794340286665942 0
0.04883805928977696 0.01663805274154032 0
0.03817271236047118 0.07287830242498082 0
0.07766543489710107 0.02327063766603985 0
0.01979036720755353 0.07820930365340312 0
0.03001417275543682 0.01688989447342235 0
0.03792393331568909 0.03502019856681075 0
0.0596066964404986 0.03272463166224761 0
0.01687525773667068 0.0296248025156042 0
0.03731783979693562 0.05534688106772585 0
0.07557007092999067 0.03978054215824185 0
0.05282396275837423 0.06338049655920946 0
0.01464101615132265 0.01464101615134911 0
0.02284874531949456 0.06287557800257594 0
0.04977960093040558 0.04630960204338736 0
0.06437378314235796 0.01406302500041489 0
$EndNodes
$Elements
4 68 1 68
1 1 1 5
1 1 4 
2 4 5 
3 5 6 
4 6 7 
5 7 2 
1 2 1 5
6 3 8 
7 8 9 
8 9 10 
9 10 11 
10 11 1 
1 3 1 8
11 2 12 
12 12 13 
13 13 14 
14 14 15 
15 15 16 
16 16 17 
17 17 18 
18 18 3 
2 1 2 50
19 26 20 28 
20 7 12 23 
21 20 26 29 
22 24 9 33 
23 8 18 3 
24 7 2 12 
25 8 9 24 
26 18 8 24 
27 12 13 23 
28 9 20 33 
29 17 18 24 
30 22 17 24 
31 25 26 28 
32 23 13 30 
33 31 29 34 
34 22 29 31 
35 25 21 26 
36 5 21 25 
37 5 6 21 
38 9 10 20 
39 4 5 25 
40 14 15 19 
41 16 17 22 
42 7 23 35 
43 10 11 28 
44 23 27 35 
45 26 21 27 
46 20 10 28 
47 27 23 30 
48 14 19 30 
49 6 7 35 
50 1 4 32 
51 11 1 32 
52 13 14 30 
53 27 21 35 
54 19 31 34 
55 19 27 30 
56 15 16 31 
57 19 15 31 
58 16 22 31 
59 22 24 33 
60 28 11 32 
61 29 22 33 
62 4 25 32 
63 21 6 35 
64 25 28 32 
65 20 29 33 
66 29 26 34 
67 27 19 34 
68 26 27 34 
$EndElements
